<svg xmlns="http://www.w3.org/2000/svg" viewBox="0 0 900 280" width="900" height="280">
  <defs>
    <linearGradient id="sky" x1="0" y1="0" x2="0" y2="1">
      <stop offset="0%" stop-color="#060611"/>
      <stop offset="60%" stop-color="#0d1117"/>
      <stop offset="100%" stop-color="#1a1b2e"/>
    </linearGradient>
    <linearGradient id="road" x1="0" y1="0" x2="0" y2="1">
      <stop offset="0%" stop-color="#12121f"/>
      <stop offset="100%" stop-color="#0a0a15"/>
    </linearGradient>
    <filter id="glow-pink" x="-40%" y="-40%" width="180%" height="180%">
      <feGaussianBlur stdDeviation="3" result="b"/>
      <feMerge><feMergeNode in="b"/><feMergeNode in="b"/><feMergeNode in="SourceGraphic"/></feMerge>
    </filter>
    <filter id="glow-blue" x="-40%" y="-40%" width="180%" height="180%">
      <feGaussianBlur stdDeviation="3" result="b"/>
      <feMerge><feMergeNode in="b"/><feMergeNode in="b"/><feMergeNode in="SourceGraphic"/></feMerge>
    </filter>
    <filter id="glow-text" x="-20%" y="-20%" width="140%" height="140%">
      <feGaussianBlur stdDeviation="5" result="b"/>
      <feMerge><feMergeNode in="b"/><feMergeNode in="b"/><feMergeNode in="SourceGraphic"/></feMerge>
    </filter>
    <filter id="glow-car" x="-100%" y="-100%" width="300%" height="300%">
      <feGaussianBlur stdDeviation="5" result="b"/>
      <feMerge><feMergeNode in="b"/><feMergeNode in="SourceGraphic"/></feMerge>
    </filter>
    <clipPath id="clip"><rect width="900" height="280"/></clipPath>
  </defs>

  <!-- Sky -->
  <rect width="900" height="280" fill="url(#sky)"/>

  <!-- Moon crescent -->
  <circle cx="828" cy="38" r="22" fill="#c9b99a" opacity="0.85"/>
  <circle cx="840" cy="31" r="19" fill="#070711"/>

  <!-- Stars -->
  <g>
    <circle cx="22"  cy="18"  r="1.2" fill="white"><animate attributeName="opacity" values="1;0.2;1"   dur="3.1s" repeatCount="indefinite" begin="0s"/></circle>
    <circle cx="78"  cy="42"  r="0.9" fill="white"><animate attributeName="opacity" values="0.8;0.1;0.8" dur="2.4s" repeatCount="indefinite" begin="0.7s"/></circle>
    <circle cx="145" cy="14"  r="1.4" fill="white"><animate attributeName="opacity" values="1;0.3;1"   dur="4s"   repeatCount="indefinite" begin="1.2s"/></circle>
    <circle cx="210" cy="32"  r="1.0" fill="white"><animate attributeName="opacity" values="0.9;0.2;0.9" dur="2.8s" repeatCount="indefinite" begin="0.3s"/></circle>
    <circle cx="270" cy="12"  r="1.3" fill="white"><animate attributeName="opacity" values="1;0.4;1"   dur="3.5s" repeatCount="indefinite" begin="1.8s"/></circle>
    <circle cx="340" cy="25"  r="0.8" fill="white"><animate attributeName="opacity" values="0.7;0.1;0.7" dur="2.2s" repeatCount="indefinite" begin="0.5s"/></circle>
    <circle cx="410" cy="9"   r="1.5" fill="white"><animate attributeName="opacity" values="1;0.3;1"   dur="3s"   repeatCount="indefinite" begin="2.1s"/></circle>
    <circle cx="470" cy="30"  r="0.9" fill="#b0c4ff"><animate attributeName="opacity" values="0.9;0.2;0.9" dur="2.6s" repeatCount="indefinite" begin="0.9s"/></circle>
    <circle cx="535" cy="16"  r="1.2" fill="white"><animate attributeName="opacity" values="1;0.3;1"   dur="4.2s" repeatCount="indefinite" begin="1.4s"/></circle>
    <circle cx="595" cy="38"  r="1.0" fill="white"><animate attributeName="opacity" values="0.8;0.1;0.8" dur="3s"   repeatCount="indefinite" begin="0.2s"/></circle>
    <circle cx="660" cy="22"  r="1.3" fill="white"><animate attributeName="opacity" values="1;0.4;1"   dur="2.9s" repeatCount="indefinite" begin="1.6s"/></circle>
    <circle cx="720" cy="10"  r="0.8" fill="#d0d8ff"><animate attributeName="opacity" values="0.7;0.2;0.7" dur="3.7s" repeatCount="indefinite" begin="0.4s"/></circle>
    <circle cx="760" cy="44"  r="1.1" fill="white"><animate attributeName="opacity" values="1;0.3;1"   dur="2.5s" repeatCount="indefinite" begin="2s"/></circle>
    <circle cx="875" cy="28"  r="1.0" fill="white"><animate attributeName="opacity" values="0.9;0.2;0.9" dur="3.3s" repeatCount="indefinite" begin="0.8s"/></circle>
    <circle cx="55"  cy="58"  r="0.8" fill="white" opacity="0.5"/>
    <circle cx="175" cy="50"  r="1.0" fill="white"><animate attributeName="opacity" values="0.7;0.1;0.7" dur="5s"   repeatCount="indefinite" begin="0.6s"/></circle>
    <circle cx="305" cy="55"  r="0.7" fill="white" opacity="0.6"/>
    <circle cx="445" cy="48"  r="1.1" fill="white"><animate attributeName="opacity" values="0.8;0.2;0.8" dur="3.8s" repeatCount="indefinite" begin="1.1s"/></circle>
    <circle cx="570" cy="60"  r="0.8" fill="white" opacity="0.55"/>
    <circle cx="690" cy="52"  r="1.0" fill="white"><animate attributeName="opacity" values="0.9;0.3;0.9" dur="4s"   repeatCount="indefinite" begin="1.9s"/></circle>
    <circle cx="800" cy="58"  r="0.7" fill="white" opacity="0.6"/>
    <circle cx="380" cy="68"  r="0.9" fill="white"><animate attributeName="opacity" values="0.6;0.1;0.6" dur="3s"   repeatCount="indefinite" begin="0.4s"/></circle>
    <circle cx="500" cy="72"  r="0.8" fill="white" opacity="0.5"/>
  </g>

  <!-- BACK BUILDINGS -->
  <g fill="#131d35">
    <rect x="0"   y="118" width="55"  height="127"/>
    <rect x="50"  y="138" width="42"  height="107"/>
    <rect x="88"  y="98"  width="65"  height="147"/>
    <rect x="148" y="128" width="36"  height="117"/>
    <rect x="179" y="108" width="55"  height="137"/>
    <rect x="229" y="92"  width="46"  height="153"/>
    <rect x="270" y="123" width="50"  height="122"/>
    <rect x="315" y="103" width="42"  height="142"/>
    <rect x="352" y="133" width="55"  height="112"/>
    <rect x="402" y="88"  width="62"  height="157"/>
    <rect x="459" y="113" width="46"  height="132"/>
    <rect x="500" y="98"  width="56"  height="147"/>
    <rect x="551" y="118" width="42"  height="127"/>
    <rect x="588" y="92"  width="62"  height="153"/>
    <rect x="645" y="108" width="50"  height="137"/>
    <rect x="690" y="128" width="42"  height="117"/>
    <rect x="727" y="98"  width="65"  height="147"/>
    <rect x="787" y="118" width="50"  height="127"/>
    <rect x="832" y="103" width="46"  height="142"/>
    <rect x="873" y="122" width="27"  height="123"/>
  </g>
  <!-- Back windows -->
  <g fill="#fffacd" opacity="0.3">
    <rect x="6"   y="126" width="5" height="7"/><rect x="15"  y="126" width="5" height="7"/><rect x="24"  y="126" width="5" height="7"/><rect x="33"  y="126" width="5" height="7"/>
    <rect x="6"   y="139" width="5" height="7"/><rect x="24"  y="139" width="5" height="7"/><rect x="33"  y="139" width="5" height="7"/>
    <rect x="15"  y="152" width="5" height="7"/><rect x="33"  y="152" width="5" height="7"/>
    <rect x="94"  y="106" width="5" height="7"/><rect x="103" y="106" width="5" height="7"/><rect x="112" y="106" width="5" height="7"/><rect x="121" y="106" width="5" height="7"/>
    <rect x="94"  y="119" width="5" height="7"/><rect x="112" y="119" width="5" height="7"/><rect x="121" y="119" width="5" height="7"/>
    <rect x="103" y="132" width="5" height="7"/><rect x="121" y="132" width="5" height="7"/>
    <rect x="234" y="100" width="5" height="7"/><rect x="243" y="100" width="5" height="7"/><rect x="252" y="100" width="5" height="7"/>
    <rect x="234" y="113" width="5" height="7"/><rect x="252" y="113" width="5" height="7"/>
    <rect x="408" y="96"  width="5" height="7"/><rect x="417" y="96"  width="5" height="7"/><rect x="426" y="96"  width="5" height="7"/><rect x="435" y="96"  width="5" height="7"/>
    <rect x="408" y="109" width="5" height="7"/><rect x="426" y="109" width="5" height="7"/>
    <rect x="417" y="122" width="5" height="7"/><rect x="435" y="122" width="5" height="7"/>
    <rect x="593" y="100" width="5" height="7"/><rect x="602" y="100" width="5" height="7"/><rect x="611" y="100" width="5" height="7"/>
    <rect x="593" y="113" width="5" height="7"/><rect x="611" y="113" width="5" height="7"/>
    <rect x="602" y="126" width="5" height="7"/>
    <rect x="732" y="106" width="5" height="7"/><rect x="741" y="106" width="5" height="7"/><rect x="750" y="106" width="5" height="7"/>
    <rect x="732" y="119" width="5" height="7"/><rect x="750" y="119" width="5" height="7"/>
    <rect x="741" y="132" width="5" height="7"/>
  </g>

  <!-- MID BUILDINGS -->
  <g fill="#0d1525">
    <rect x="0"   y="152" width="46"  height="93"/>
    <rect x="42"  y="164" width="52"  height="81"/>
    <rect x="89"  y="148" width="42"  height="97"/>
    <rect x="126" y="160" width="55"  height="85"/>
    <rect x="176" y="142" width="46"  height="103"/>
    <rect x="217" y="157" width="60"  height="88"/>
    <rect x="272" y="150" width="48"  height="95"/>
    <rect x="315" y="162" width="52"  height="83"/>
    <rect x="362" y="145" width="42"  height="100"/>
    <rect x="399" y="153" width="56"  height="92"/>
    <rect x="450" y="148" width="48"  height="97"/>
    <rect x="493" y="160" width="55"  height="85"/>
    <rect x="543" y="144" width="46"  height="101"/>
    <rect x="584" y="157" width="52"  height="88"/>
    <rect x="631" y="150" width="48"  height="95"/>
    <rect x="674" y="162" width="46"  height="83"/>
    <rect x="715" y="147" width="55"  height="98"/>
    <rect x="765" y="157" width="48"  height="88"/>
    <rect x="808" y="150" width="50"  height="95"/>
    <rect x="853" y="160" width="47"  height="85"/>
  </g>
  <!-- Mid windows -->
  <g fill="#ffe88a" opacity="0.55">
    <rect x="5"   y="160" width="6" height="8"/><rect x="15"  y="160" width="6" height="8"/><rect x="25"  y="160" width="6" height="8"/>
    <rect x="5"   y="173" width="6" height="8"/><rect x="25"  y="173" width="6" height="8"/>
    <rect x="15"  y="186" width="6" height="8"/>
    <rect x="95"  y="156" width="6" height="8"/><rect x="105" y="156" width="6" height="8"/><rect x="115" y="156" width="6" height="8"/>
    <rect x="95"  y="169" width="6" height="8"/><rect x="115" y="169" width="6" height="8"/>
    <rect x="182" y="150" width="6" height="8"/><rect x="192" y="150" width="6" height="8"/><rect x="202" y="150" width="6" height="8"/>
    <rect x="182" y="163" width="6" height="8"/><rect x="202" y="163" width="6" height="8"/>
    <rect x="192" y="176" width="6" height="8"/><rect x="202" y="176" width="6" height="8"/>
    <rect x="405" y="161" width="6" height="8"/><rect x="415" y="161" width="6" height="8"/><rect x="425" y="161" width="6" height="8"/><rect x="435" y="161" width="6" height="8"/>
    <rect x="405" y="174" width="6" height="8"/><rect x="425" y="174" width="6" height="8"/>
    <rect x="415" y="187" width="6" height="8"/><rect x="435" y="187" width="6" height="8"/>
    <rect x="549" y="152" width="6" height="8"/><rect x="559" y="152" width="6" height="8"/><rect x="569" y="152" width="6" height="8"/>
    <rect x="549" y="165" width="6" height="8"/><rect x="569" y="165" width="6" height="8"/>
    <rect x="559" y="178" width="6" height="8"/>
    <rect x="721" y="155" width="6" height="8"/><rect x="731" y="155" width="6" height="8"/><rect x="741" y="155" width="6" height="8"/><rect x="751" y="155" width="6" height="8"/>
    <rect x="721" y="168" width="6" height="8"/><rect x="741" y="168" width="6" height="8"/><rect x="751" y="168" width="6" height="8"/>
    <rect x="731" y="181" width="6" height="8"/><rect x="751" y="181" width="6" height="8"/>
  </g>

  <!-- FRONT BUILDINGS -->
  <g fill="#07090f">
    <rect x="0"   y="188" width="55"  height="57"/>
    <rect x="50"  y="177" width="70"  height="68"/>
    <rect x="115" y="192" width="50"  height="53"/>
    <rect x="160" y="181" width="65"  height="64"/>
    <rect x="220" y="173" width="56"  height="72"/>
    <rect x="271" y="185" width="60"  height="60"/>
    <rect x="326" y="179" width="48"  height="66"/>
    <rect x="369" y="190" width="55"  height="55"/>
    <rect x="419" y="175" width="65"  height="70"/>
    <rect x="479" y="185" width="55"  height="60"/>
    <rect x="529" y="177" width="60"  height="68"/>
    <rect x="584" y="187" width="52"  height="58"/>
    <rect x="631" y="173" width="65"  height="72"/>
    <rect x="691" y="185" width="50"  height="60"/>
    <rect x="736" y="176" width="65"  height="69"/>
    <rect x="796" y="187" width="55"  height="58"/>
    <rect x="846" y="179" width="54"  height="66"/>
  </g>
  <!-- Front windows bright -->
  <g fill="#fff5b0" opacity="0.9">
    <rect x="56"  y="185" width="7" height="9"/><rect x="68"  y="185" width="7" height="9"/><rect x="80"  y="185" width="7" height="9"/>
    <rect x="56"  y="199" width="7" height="9"/><rect x="80"  y="199" width="7" height="9"/>
    <rect x="68"  y="213" width="7" height="9"/>
    <rect x="226" y="181" width="7" height="9"/><rect x="238" y="181" width="7" height="9"/><rect x="250" y="181" width="7" height="9"/>
    <rect x="226" y="195" width="7" height="9"/><rect x="250" y="195" width="7" height="9"/>
    <rect x="238" y="209" width="7" height="9"/><rect x="250" y="209" width="7" height="9"/>
    <rect x="425" y="183" width="7" height="9"/><rect x="437" y="183" width="7" height="9"/><rect x="449" y="183" width="7" height="9"/><rect x="461" y="183" width="7" height="9"/>
    <rect x="425" y="197" width="7" height="9"/><rect x="449" y="197" width="7" height="9"/><rect x="461" y="197" width="7" height="9"/>
    <rect x="437" y="211" width="7" height="9"/><rect x="461" y="211" width="7" height="9"/>
    <rect x="637" y="181" width="7" height="9"/><rect x="649" y="181" width="7" height="9"/><rect x="661" y="181" width="7" height="9"/><rect x="673" y="181" width="7" height="9"/>
    <rect x="637" y="195" width="7" height="9"/><rect x="661" y="195" width="7" height="9"/><rect x="673" y="195" width="7" height="9"/>
    <rect x="649" y="209" width="7" height="9"/>
    <rect x="742" y="184" width="7" height="9"/><rect x="754" y="184" width="7" height="9"/><rect x="766" y="184" width="7" height="9"/><rect x="778" y="184" width="7" height="9"/>
    <rect x="742" y="198" width="7" height="9"/><rect x="766" y="198" width="7" height="9"/>
    <rect x="754" y="212" width="7" height="9"/><rect x="778" y="212" width="7" height="9"/>
  </g>

  <!-- NEON SIGNS -->
  <g filter="url(#glow-pink)">
    <rect x="163" y="186" width="48" height="13" fill="none" stroke="#e94560" stroke-width="1.5" rx="2"/>
    <text x="187" y="197" text-anchor="middle" fill="#e94560" font-size="8" font-family="monospace" font-weight="bold">TOKYO</text>
  </g>
  <g filter="url(#glow-blue)">
    <rect x="328" y="184" width="36" height="12" fill="none" stroke="#5983FC" stroke-width="1.5" rx="1"/>
    <text x="346" y="194" text-anchor="middle" fill="#5983FC" font-size="7" font-family="monospace">24/7</text>
  </g>
  <g filter="url(#glow-pink)">
    <text x="557" y="194" text-anchor="middle" fill="#bf8fff" font-size="10" font-family="monospace" font-weight="bold">ラーメン</text>
  </g>
  <g filter="url(#glow-blue)">
    <text x="714" y="194" text-anchor="middle" fill="#00d4ff" font-size="9" font-family="monospace" font-weight="bold">
      BAR
      <animate attributeName="opacity" values="1;0.2;1;0.7;1;0.4;1" dur="5s" repeatCount="indefinite"/>
    </text>
  </g>
  <g filter="url(#glow-pink)">
    <text x="810" y="195" text-anchor="middle" fill="#ff6b9d" font-size="8" font-family="monospace" font-weight="bold">
      HOTEL
      <animate attributeName="opacity" values="1;1;0.3;1;1;0.5;1" dur="6s" repeatCount="indefinite" begin="1s"/>
    </text>
  </g>

  <!-- ROAD -->
  <rect y="244" width="900" height="36" fill="url(#road)"/>
  <rect y="242" width="900" height="3" fill="#1a1a30"/>
  <!-- Center dashes -->
  <g fill="white" opacity="0.25">
    <rect x="0"   y="262" width="28" height="2"/><rect x="48"  y="262" width="28" height="2"/>
    <rect x="96"  y="262" width="28" height="2"/><rect x="144" y="262" width="28" height="2"/>
    <rect x="192" y="262" width="28" height="2"/><rect x="240" y="262" width="28" height="2"/>
    <rect x="288" y="262" width="28" height="2"/><rect x="336" y="262" width="28" height="2"/>
    <rect x="384" y="262" width="28" height="2"/><rect x="432" y="262" width="28" height="2"/>
    <rect x="480" y="262" width="28" height="2"/><rect x="528" y="262" width="28" height="2"/>
    <rect x="576" y="262" width="28" height="2"/><rect x="624" y="262" width="28" height="2"/>
    <rect x="672" y="262" width="28" height="2"/><rect x="720" y="262" width="28" height="2"/>
    <rect x="768" y="262" width="28" height="2"/><rect x="816" y="262" width="28" height="2"/>
    <rect x="864" y="262" width="28" height="2"/>
  </g>

  <!-- CARS GOING RIGHT -->
  <g clip-path="url(#clip)">
    <g><animateTransform attributeName="transform" type="translate" from="-120 0" to="950 0" dur="8s"  repeatCount="indefinite" begin="0s"/>
      <rect x="0" y="249" width="60" height="14" fill="#1e2a4a" rx="3"/>
      <rect x="10" y="243" width="35" height="10" fill="#253354" rx="2"/>
      <circle cx="58" cy="256" r="4" fill="#fffde0" filter="url(#glow-car)" opacity="0.9"/>
      <circle cx="2"  cy="256" r="3" fill="#cc0000" opacity="0.8"/>
    </g>
    <g><animateTransform attributeName="transform" type="translate" from="-260 0" to="950 0" dur="6.5s" repeatCount="indefinite" begin="2.5s"/>
      <rect x="0" y="251" width="55" height="13" fill="#2a1e3a" rx="3"/>
      <rect x="8" y="245" width="32" height="9"  fill="#332538" rx="2"/>
      <circle cx="53" cy="257" r="4" fill="#fff5b0" filter="url(#glow-car)" opacity="0.85"/>
      <circle cx="2"  cy="257" r="3" fill="#dd0000" opacity="0.75"/>
    </g>
    <g><animateTransform attributeName="transform" type="translate" from="-60  0" to="950 0" dur="10s"  repeatCount="indefinite" begin="4.5s"/>
      <rect x="0" y="248" width="62" height="15" fill="#182030" rx="3"/>
      <rect x="9" y="242" width="36" height="10" fill="#20293e" rx="2"/>
      <circle cx="60" cy="255" r="4" fill="#ffffe0" filter="url(#glow-car)" opacity="0.9"/>
      <circle cx="2"  cy="255" r="3" fill="#ff2200" opacity="0.8"/>
    </g>
  </g>

  <!-- CARS GOING LEFT -->
  <g clip-path="url(#clip)">
    <g><animateTransform attributeName="transform" type="translate" from="950 0" to="-120 0" dur="9s"   repeatCount="indefinite" begin="1s"/>
      <rect x="0" y="263" width="58" height="13" fill="#1c1f40" rx="3"/>
      <rect x="12" y="257" width="32" height="9" fill="#242545" rx="2"/>
      <circle cx="2"  cy="269" r="4" fill="#fffde0" filter="url(#glow-car)" opacity="0.9"/>
      <circle cx="55" cy="269" r="3" fill="#cc0000" opacity="0.8"/>
    </g>
    <g><animateTransform attributeName="transform" type="translate" from="950 0" to="-200 0" dur="7s"   repeatCount="indefinite" begin="3.5s"/>
      <rect x="0" y="265" width="55" height="12" fill="#1a1232" rx="3"/>
      <rect x="10" y="259" width="30" height="8" fill="#22193c" rx="2"/>
      <circle cx="2"  cy="271" r="3.5" fill="#fff0a0" filter="url(#glow-car)" opacity="0.85"/>
      <circle cx="53" cy="271" r="2.5" fill="#ee1100" opacity="0.75"/>
    </g>
    <g><animateTransform attributeName="transform" type="translate" from="950 0" to="-150 0" dur="5.5s"  repeatCount="indefinite" begin="6.5s"/>
      <rect x="0" y="261" width="60" height="14" fill="#14102c" rx="3"/>
      <rect x="11" y="255" width="34" height="10" fill="#1c1838" rx="2"/>
      <circle cx="2"  cy="268" r="4" fill="#fffbe0" filter="url(#glow-car)" opacity="0.9"/>
      <circle cx="57" cy="268" r="3" fill="#dd1100" opacity="0.8"/>
    </g>
  </g>

  <!-- TEXT CENTERED IN SKY -->
  <g filter="url(#glow-text)">
    <text x="450" y="108" text-anchor="middle" font-family="'Segoe UI',Arial,sans-serif" font-size="38" font-weight="bold" fill="white" letter-spacing="3">Vinisha</text>
  </g>
  <text x="450" y="134" text-anchor="middle" font-family="'Courier New',monospace" font-size="13" fill="#5983FC" letter-spacing="1">CS &amp; Math @ UW Bothell  ·  AI/ML Research  ·  Full Stack</text>
  <line x1="270" y1="144" x2="630" y2="144" stroke="#5983FC" stroke-width="0.5" opacity="0.4"/>

</svg>